<svg width="16" height="17" viewBox="0 0 16 17" fill="none" xmlns="http://www.w3.org/2000/svg">
<path d="M12.4733 5.97259C12.4113 5.9101 12.3376 5.86051 12.2563 5.82666C12.1751 5.79282 12.088 5.77539 12 5.77539C11.912 5.77539 11.8248 5.79282 11.7436 5.82666C11.6623 5.86051 11.5886 5.9101 11.5266 5.97259L8.47329 9.02592C8.41132 9.08841 8.33758 9.138 8.25634 9.17185C8.1751 9.2057 8.08797 9.22312 7.99996 9.22312C7.91195 9.22312 7.82481 9.2057 7.74357 9.17185C7.66233 9.138 7.5886 9.08841 7.52663 9.02592L4.47329 5.97259C4.41132 5.9101 4.33758 5.86051 4.25634 5.82666C4.1751 5.79282 4.08797 5.77539 3.99996 5.77539C3.91195 5.77539 3.82481 5.79282 3.74357 5.82666C3.66233 5.86051 3.5886 5.9101 3.52663 5.97259C3.40246 6.0975 3.33276 6.26647 3.33276 6.44259C3.33276 6.61871 3.40246 6.78768 3.52663 6.91259L6.58663 9.97259C6.96163 10.3471 7.46996 10.5575 7.99996 10.5575C8.52996 10.5575 9.03829 10.3471 9.41329 9.97259L12.4733 6.91259C12.5975 6.78768 12.6672 6.61871 12.6672 6.44259C12.6672 6.26647 12.5975 6.0975 12.4733 5.97259Z" fill="black"/>
</svg>
