<svg width="16" height="16" viewBox="0 0 16 16" fill="none" xmlns="http://www.w3.org/2000/svg">
<g clip-path="url(#clip0_190_9015)">
<path d="M4.66667 0H2.66667C1.95942 0 1.28115 0.280952 0.781049 0.781049C0.280952 1.28115 0 1.95942 0 2.66667L0 4.66667C0 5.37391 0.280952 6.05219 0.781049 6.55229C1.28115 7.05238 1.95942 7.33333 2.66667 7.33333H4.66667C5.37391 7.33333 6.05219 7.05238 6.55229 6.55229C7.05238 6.05219 7.33333 5.37391 7.33333 4.66667V2.66667C7.33333 1.95942 7.05238 1.28115 6.55229 0.781049C6.05219 0.280952 5.37391 0 4.66667 0ZM6 4.66667C6 5.02029 5.85952 5.35943 5.60948 5.60948C5.35943 5.85952 5.02029 6 4.66667 6H2.66667C2.31304 6 1.97391 5.85952 1.72386 5.60948C1.47381 5.35943 1.33333 5.02029 1.33333 4.66667V2.66667C1.33333 2.31304 1.47381 1.97391 1.72386 1.72386C1.97391 1.47381 2.31304 1.33333 2.66667 1.33333H4.66667C5.02029 1.33333 5.35943 1.47381 5.60948 1.72386C5.85952 1.97391 6 2.31304 6 2.66667V4.66667Z" fill="black"/>
<path d="M13.3333 0H11.3333C10.626 0 9.94777 0.280952 9.44767 0.781049C8.94758 1.28115 8.66663 1.95942 8.66663 2.66667V4.66667C8.66663 5.37391 8.94758 6.05219 9.44767 6.55229C9.94777 7.05238 10.626 7.33333 11.3333 7.33333H13.3333C14.0405 7.33333 14.7188 7.05238 15.2189 6.55229C15.719 6.05219 16 5.37391 16 4.66667V2.66667C16 1.95942 15.719 1.28115 15.2189 0.781049C14.7188 0.280952 14.0405 0 13.3333 0ZM14.6666 4.66667C14.6666 5.02029 14.5262 5.35943 14.2761 5.60948C14.0261 5.85952 13.6869 6 13.3333 6H11.3333C10.9797 6 10.6405 5.85952 10.3905 5.60948C10.1404 5.35943 9.99996 5.02029 9.99996 4.66667V2.66667C9.99996 2.31305 10.1404 1.97391 10.3905 1.72386C10.6405 1.47381 10.9797 1.33333 11.3333 1.33333H13.3333C13.6869 1.33333 14.0261 1.47381 14.2761 1.72386C14.5262 1.97391 14.6666 2.31305 14.6666 2.66667V4.66667Z" fill="black"/>
<path d="M4.66667 8.66602H2.66667C1.95942 8.66602 1.28115 8.94697 0.781049 9.44706C0.280952 9.94716 0 10.6254 0 11.3327L0 13.3327C0 14.0399 0.280952 14.7182 0.781049 15.2183C1.28115 15.7184 1.95942 15.9993 2.66667 15.9993H4.66667C5.37391 15.9993 6.05219 15.7184 6.55229 15.2183C7.05238 14.7182 7.33333 14.0399 7.33333 13.3327V11.3327C7.33333 10.6254 7.05238 9.94716 6.55229 9.44706C6.05219 8.94697 5.37391 8.66602 4.66667 8.66602ZM6 13.3327C6 13.6863 5.85952 14.0254 5.60948 14.2755C5.35943 14.5255 5.02029 14.666 4.66667 14.666H2.66667C2.31304 14.666 1.97391 14.5255 1.72386 14.2755C1.47381 14.0254 1.33333 13.6863 1.33333 13.3327V11.3327C1.33333 10.9791 1.47381 10.6399 1.72386 10.3899C1.97391 10.1398 2.31304 9.99935 2.66667 9.99935H4.66667C5.02029 9.99935 5.35943 10.1398 5.60948 10.3899C5.85952 10.6399 6 10.9791 6 11.3327V13.3327Z" fill="black"/>
<path d="M13.3333 8.66602H11.3333C10.626 8.66602 9.94777 8.94697 9.44767 9.44706C8.94758 9.94716 8.66663 10.6254 8.66663 11.3327V13.3327C8.66663 14.0399 8.94758 14.7182 9.44767 15.2183C9.94777 15.7184 10.626 15.9993 11.3333 15.9993H13.3333C14.0405 15.9993 14.7188 15.7184 15.2189 15.2183C15.719 14.7182 16 14.0399 16 13.3327V11.3327C16 10.6254 15.719 9.94716 15.2189 9.44706C14.7188 8.94697 14.0405 8.66602 13.3333 8.66602ZM14.6666 13.3327C14.6666 13.6863 14.5262 14.0254 14.2761 14.2755C14.0261 14.5255 13.6869 14.666 13.3333 14.666H11.3333C10.9797 14.666 10.6405 14.5255 10.3905 14.2755C10.1404 14.0254 9.99996 13.6863 9.99996 13.3327V11.3327C9.99996 10.9791 10.1404 10.6399 10.3905 10.3899C10.6405 10.1398 10.9797 9.99935 11.3333 9.99935H13.3333C13.6869 9.99935 14.0261 10.1398 14.2761 10.3899C14.5262 10.6399 14.6666 10.9791 14.6666 11.3327V13.3327Z" fill="black"/>
</g>
<defs>
<clipPath id="clip0_190_9015">
<rect width="16" height="16" fill="white"/>
</clipPath>
</defs>
</svg>
