<svg width="16" height="16" viewBox="0 0 16 16" fill="none" xmlns="http://www.w3.org/2000/svg">
<g clip-path="url(#clip0_190_5326)">
<path d="M6.66658 2.66667L6.66658 13.3333C6.66658 14.8067 5.47325 16 3.99992 16H2.66658C1.19325 16 -8.2016e-05 14.8067 -8.2016e-05 13.3333L-8.2016e-05 2.66667C-8.2016e-05 1.19333 1.19325 0 2.66658 0H3.99992C5.47325 0 6.66658 1.19333 6.66658 2.66667ZM1.33325 13.3333C1.33325 14.0667 1.93325 14.6667 2.66658 14.6667H3.99992C4.73325 14.6667 5.33325 14.0667 5.33325 13.3333L5.33325 2.66667C5.33325 1.93333 4.73325 1.33333 3.99992 1.33333H2.66658C1.93325 1.33333 1.33325 1.93333 1.33325 2.66667L1.33325 13.3333ZM15.9999 2.66667V13.3333C15.9999 14.8067 14.8066 16 13.3333 16L11.9999 16C10.5266 16 9.33325 14.8067 9.33325 13.3333L9.33325 2.66667C9.33325 1.19333 10.5266 0 11.9999 0H13.3333C14.8066 0 15.9999 1.19333 15.9999 2.66667ZM10.6666 13.3333C10.6666 14.0667 11.2666 14.6667 11.9999 14.6667H13.3333C14.0666 14.6667 14.6666 14.0667 14.6666 13.3333V2.66667C14.6666 1.93333 14.0666 1.33333 13.3333 1.33333H11.9999C11.2666 1.33333 10.6666 1.93333 10.6666 2.66667L10.6666 13.3333Z" fill="black"/>
<path d="M10.6666 2.66667L10.5 13.5C10.5 14.9733 10.4733 16 9 16H7C5.52667 16 5.33325 14.8067 5.33325 13.3333L5.33325 2.66667C5.33325 1.19333 5.52667 0 7 0H9C10.4733 0 10.6666 1.19333 10.6666 2.66667ZM6.5 13.5C6.5 14.2333 6.76667 14.5 7.5 14.5H8.5C9.23333 14.5 9.5 14.2333 9.5 13.5L9.5 2.5C9.5 1.76667 9.23333 1.5 8.5 1.5H7.5C6.76667 1.5 6.5 1.76667 6.5 2.5L6.5 13.5Z" fill="black"/>
</g>
<defs>
<clipPath id="clip0_190_5326">
<rect width="16" height="16" fill="white"/>
</clipPath>
</defs>
</svg>
