<svg width="16" height="16" viewBox="0 0 16 16" fill="none" xmlns="http://www.w3.org/2000/svg">
<path d="M12.6667 1.33398H3.33333C1.49533 1.33398 0 2.82932 0 4.66732V11.334C0 13.172 1.49533 14.6673 3.33333 14.6673H12.6667C14.5047 14.6673 16 13.172 16 11.334V4.66732C16 2.82932 14.5047 1.33398 12.6667 1.33398ZM1.33333 11.334V4.66732C1.33333 3.56465 2.23067 2.66732 3.33333 2.66732H8.66667V13.334H3.33333C2.23067 13.334 1.33333 12.4367 1.33333 11.334ZM14.6667 11.334C14.6667 12.4367 13.7693 13.334 12.6667 13.334H10V2.66732H12.6667C13.7693 2.66732 14.6667 3.56465 14.6667 4.66732V11.334ZM13.3333 7.33398C13.3333 7.70265 13.0347 8.00065 12.6667 8.00065H12C11.632 8.00065 11.3333 7.70265 11.3333 7.33398C11.3333 6.96532 11.632 6.66732 12 6.66732H12.6667C13.0347 6.66732 13.3333 6.96532 13.3333 7.33398ZM13.3333 10.0007C13.3333 10.3693 13.0347 10.6673 12.6667 10.6673H12C11.632 10.6673 11.3333 10.3693 11.3333 10.0007C11.3333 9.63198 11.632 9.33398 12 9.33398H12.6667C13.0347 9.33398 13.3333 9.63198 13.3333 10.0007ZM13.3333 4.66732C13.3333 5.03598 13.0347 5.33398 12.6667 5.33398H12C11.632 5.33398 11.3333 5.03598 11.3333 4.66732C11.3333 4.29865 11.632 4.00065 12 4.00065H12.6667C13.0347 4.00065 13.3333 4.29865 13.3333 4.66732Z" fill="black"/>
</svg>
