<svg width="24" height="24" viewBox="0 0 24 24" fill="none" xmlns="http://www.w3.org/2000/svg">
<rect x="0.25" y="0.25" width="23.5" height="23.5" rx="3.75" stroke="black" stroke-width="0.5"/>
<g clip-path="url(#clip0_190_3790)">
<path d="M12 20C11.2928 20 10.6145 19.719 10.1144 19.219C9.61428 18.7189 9.33333 18.0406 9.33333 17.3333V14.6667H6.66667C5.95942 14.6667 5.28115 14.3857 4.78105 13.8856C4.28095 13.3855 4 12.7072 4 12C4 11.2928 4.28095 10.6145 4.78105 10.1144C5.28115 9.61428 5.95942 9.33333 6.66667 9.33333H9.33333V6.66667C9.33333 5.95942 9.61428 5.28115 10.1144 4.78105C10.6145 4.28095 11.2928 4 12 4C12.7072 4 13.3855 4.28095 13.8856 4.78105C14.3857 5.28115 14.6667 5.95942 14.6667 6.66667V9.33333H17.3333C18.0406 9.33333 18.7189 9.61428 19.219 10.1144C19.719 10.6145 20 11.2928 20 12C20 12.7072 19.719 13.3855 19.219 13.8856C18.7189 14.3857 18.0406 14.6667 17.3333 14.6667H14.6667V17.3333C14.6667 18.0406 14.3857 18.7189 13.8856 19.219C13.3855 19.719 12.7072 20 12 20ZM6.66667 10.6667C6.31304 10.6667 5.97391 10.8071 5.72386 11.0572C5.47381 11.3072 5.33333 11.6464 5.33333 12C5.33333 12.3536 5.47381 12.6928 5.72386 12.9428C5.97391 13.1929 6.31304 13.3333 6.66667 13.3333H10C10.1768 13.3333 10.3464 13.4036 10.4714 13.5286C10.5964 13.6536 10.6667 13.8232 10.6667 14V17.3333C10.6667 17.687 10.8071 18.0261 11.0572 18.2761C11.3072 18.5262 11.6464 18.6667 12 18.6667C12.3536 18.6667 12.6928 18.5262 12.9428 18.2761C13.1929 18.0261 13.3333 17.687 13.3333 17.3333V14C13.3333 13.8232 13.4036 13.6536 13.5286 13.5286C13.6536 13.4036 13.8232 13.3333 14 13.3333H17.3333C17.687 13.3333 18.0261 13.1929 18.2761 12.9428C18.5262 12.6928 18.6667 12.3536 18.6667 12C18.6667 11.6464 18.5262 11.3072 18.2761 11.0572C18.0261 10.8071 17.687 10.6667 17.3333 10.6667H14C13.8232 10.6667 13.6536 10.5964 13.5286 10.4714C13.4036 10.3464 13.3333 10.1768 13.3333 10V6.66667C13.3333 6.31304 13.1929 5.97391 12.9428 5.72386C12.6928 5.47381 12.3536 5.33333 12 5.33333C11.6464 5.33333 11.3072 5.47381 11.0572 5.72386C10.8071 5.97391 10.6667 6.31304 10.6667 6.66667V10C10.6667 10.1768 10.5964 10.3464 10.4714 10.4714C10.3464 10.5964 10.1768 10.6667 10 10.6667H6.66667Z" fill="black"/>
</g>
<defs>
<clipPath id="clip0_190_3790">
<rect width="16" height="16" fill="white" transform="translate(4 4)"/>
</clipPath>
</defs>
</svg>
