<svg width="16" height="16" viewBox="0 0 16 16" fill="none" xmlns="http://www.w3.org/2000/svg">
<g clip-path="url(#clip0_190_9019)">
<path d="M4.66667 3.99935H15.3333C15.5101 3.99935 15.6797 3.92911 15.8047 3.80409C15.9298 3.67906 16 3.50949 16 3.33268C16 3.15587 15.9298 2.9863 15.8047 2.86128C15.6797 2.73625 15.5101 2.66602 15.3333 2.66602H4.66667C4.48986 2.66602 4.32029 2.73625 4.19526 2.86128C4.07024 2.9863 4 3.15587 4 3.33268C4 3.50949 4.07024 3.67906 4.19526 3.80409C4.32029 3.92911 4.48986 3.99935 4.66667 3.99935Z" fill="black"/>
<path d="M15.3333 7.33398H4.66667C4.48986 7.33398 4.32029 7.40422 4.19526 7.52925C4.07024 7.65427 4 7.82384 4 8.00065C4 8.17746 4.07024 8.34703 4.19526 8.47206C4.32029 8.59708 4.48986 8.66732 4.66667 8.66732H15.3333C15.5101 8.66732 15.6797 8.59708 15.8047 8.47206C15.9298 8.34703 16 8.17746 16 8.00065C16 7.82384 15.9298 7.65427 15.8047 7.52925C15.6797 7.40422 15.5101 7.33398 15.3333 7.33398Z" fill="black"/>
<path d="M15.3333 12H4.66667C4.48986 12 4.32029 12.0702 4.19526 12.1953C4.07024 12.3203 4 12.4899 4 12.6667C4 12.8435 4.07024 13.013 4.19526 13.1381C4.32029 13.2631 4.48986 13.3333 4.66667 13.3333H15.3333C15.5101 13.3333 15.6797 13.2631 15.8047 13.1381C15.9298 13.013 16 12.8435 16 12.6667C16 12.4899 15.9298 12.3203 15.8047 12.1953C15.6797 12.0702 15.5101 12 15.3333 12Z" fill="black"/>
<path d="M1.33333 4.66667C2.06971 4.66667 2.66667 4.06971 2.66667 3.33333C2.66667 2.59695 2.06971 2 1.33333 2C0.596954 2 0 2.59695 0 3.33333C0 4.06971 0.596954 4.66667 1.33333 4.66667Z" fill="black"/>
<path d="M1.33333 9.33268C2.06971 9.33268 2.66667 8.73573 2.66667 7.99935C2.66667 7.26297 2.06971 6.66602 1.33333 6.66602C0.596954 6.66602 0 7.26297 0 7.99935C0 8.73573 0.596954 9.33268 1.33333 9.33268Z" fill="black"/>
<path d="M1.33333 14.0007C2.06971 14.0007 2.66667 13.4037 2.66667 12.6673C2.66667 11.9309 2.06971 11.334 1.33333 11.334C0.596954 11.334 0 11.9309 0 12.6673C0 13.4037 0.596954 14.0007 1.33333 14.0007Z" fill="black"/>
</g>
<defs>
<clipPath id="clip0_190_9019">
<rect width="16" height="16" fill="white"/>
</clipPath>
</defs>
</svg>
