<svg width="16" height="16" viewBox="0 0 16 16" fill="none" xmlns="http://www.w3.org/2000/svg">
<path d="M15.6667 4.4C15.5187 4.062 15.1267 3.90933 14.7887 4.056C14.4513 4.20333 14.2973 4.59667 14.4447 4.934C14.592 5.27067 14.6667 5.62933 14.6667 6.00067V11.334C14.6667 12.0693 14.0687 12.6673 13.3333 12.6673H7.62933C7.85933 12.2733 8 11.822 8 11.334V6.00067C8 4.97533 7.60933 4.04267 6.97333 3.334H9.33333C9.70133 3.334 10 3.03533 10 2.66733C10 2.29933 9.70133 2.00067 9.33333 2.00067H4C1.794 2 0 3.794 0 6V11.3333C0 12.804 1.196 14 2.66667 14H13.3333C14.804 14 16 12.804 16 11.3333V6C16 5.444 15.888 4.90533 15.6667 4.4ZM2.66667 12.6667C1.93133 12.6667 1.33333 12.0687 1.33333 11.3333V6C1.33333 4.52933 2.52933 3.33333 4 3.33333C5.47067 3.33333 6.66667 4.52933 6.66667 6V11.3333C6.66667 12.0687 6.06867 12.6667 5.33333 12.6667H2.66667ZM5.33333 6.66667C5.33333 7.03467 5.03467 7.33333 4.66667 7.33333H3.33333C2.96533 7.33333 2.66667 7.03467 2.66667 6.66667C2.66667 6.29867 2.96533 6 3.33333 6H4.66667C5.03467 6 5.33333 6.29867 5.33333 6.66667ZM11.3333 6V2.66667C11.3333 2.29867 11.632 2 12 2H13.3333C13.7013 2 14 2.29867 14 2.66667C14 3.03467 13.7013 3.33333 13.3333 3.33333H12.6667V6C12.6667 6.368 12.368 6.66667 12 6.66667C11.632 6.66667 11.3333 6.368 11.3333 6Z" fill="black"/>
</svg>
