<svg width="16" height="16" viewBox="0 0 16 16" fill="none" xmlns="http://www.w3.org/2000/svg">
<g clip-path="url(#clip0_190_5226)">
<path d="M7.99996 2.66667C8.73634 2.66667 9.33329 2.06971 9.33329 1.33333C9.33329 0.596954 8.73634 0 7.99996 0C7.26358 0 6.66663 0.596954 6.66663 1.33333C6.66663 2.06971 7.26358 2.66667 7.99996 2.66667Z" fill="black"/>
<path d="M7.99996 9.33268C8.73634 9.33268 9.33329 8.73573 9.33329 7.99935C9.33329 7.26297 8.73634 6.66602 7.99996 6.66602C7.26358 6.66602 6.66663 7.26297 6.66663 7.99935C6.66663 8.73573 7.26358 9.33268 7.99996 9.33268Z" fill="black"/>
<path d="M7.99996 16.0007C8.73634 16.0007 9.33329 15.4037 9.33329 14.6673C9.33329 13.9309 8.73634 13.334 7.99996 13.334C7.26358 13.334 6.66663 13.9309 6.66663 14.6673C6.66663 15.4037 7.26358 16.0007 7.99996 16.0007Z" fill="black"/>
</g>
<defs>
<clipPath id="clip0_190_5226">
<rect width="16" height="16" fill="white"/>
</clipPath>
</defs>
</svg>
