<svg width="16" height="16" viewBox="0 0 16 16" fill="none" xmlns="http://www.w3.org/2000/svg">
<g clip-path="url(#clip0_190_5208)">
<path d="M4.93333 3.70228C4.87182 3.59896 4.78452 3.51338 4.67998 3.45396C4.57544 3.39453 4.45725 3.36328 4.337 3.36328C4.21675 3.36328 4.09856 3.39453 3.99402 3.45396C3.88948 3.51338 3.80218 3.59896 3.74067 3.70228L0.0739989 11.0356C0.0340561 11.114 0.0100267 11.1995 0.00329622 11.2873C-0.00343428 11.375 0.00726724 11.4632 0.0347838 11.5468C0.0623003 11.6303 0.106088 11.7076 0.163621 11.7742C0.221154 11.8408 0.291295 11.8953 0.37 11.9346C0.448706 11.9739 0.534418 11.9973 0.622195 12.0034C0.709972 12.0094 0.798078 11.998 0.881432 11.9698C0.964787 11.9417 1.04174 11.8973 1.10786 11.8392C1.17398 11.7812 1.22795 11.7106 1.26667 11.6316L2.41267 9.33362H6.25533L7.40467 11.6316C7.44338 11.7106 7.49735 11.7812 7.56347 11.8392C7.62959 11.8973 7.70654 11.9417 7.7899 11.9698C7.87325 11.998 7.96136 12.0094 8.04914 12.0034C8.13691 11.9973 8.22263 11.9739 8.30133 11.9346C8.38004 11.8953 8.45018 11.8408 8.50771 11.7742C8.56524 11.7076 8.60903 11.6303 8.63655 11.5468C8.66406 11.4632 8.67477 11.375 8.66804 11.2873C8.6613 11.1995 8.63727 11.114 8.59733 11.0356L4.93333 3.70228ZM3.07933 8.00029L4.33333 5.49095L5.58867 8.00029H3.07933Z" fill="black"/>
<path d="M15.3334 5.33398C15.1566 5.33398 14.987 5.40422 14.862 5.52925C14.7369 5.65427 14.6667 5.82384 14.6667 6.00065V6.01798C14.0931 5.57678 13.3904 5.33644 12.6667 5.33398C11.7827 5.33398 10.9348 5.68517 10.3097 6.3103C9.68456 6.93542 9.33337 7.78326 9.33337 8.66732C9.33337 9.55137 9.68456 10.3992 10.3097 11.0243C10.9348 11.6495 11.7827 12.0007 12.6667 12.0007C13.3904 11.9982 14.0931 11.7579 14.6667 11.3167V11.334C14.6667 11.5108 14.7369 11.6804 14.862 11.8054C14.987 11.9304 15.1566 12.0007 15.3334 12.0007C15.5102 12.0007 15.6798 11.9304 15.8048 11.8054C15.9298 11.6804 16 11.5108 16 11.334V6.00065C16 5.82384 15.9298 5.65427 15.8048 5.52925C15.6798 5.40422 15.5102 5.33398 15.3334 5.33398ZM12.6667 10.6673C12.2711 10.6673 11.8845 10.55 11.5556 10.3303C11.2267 10.1105 10.9703 9.79814 10.8189 9.43268C10.6676 9.06723 10.628 8.6651 10.7051 8.27714C10.7823 7.88917 10.9728 7.53281 11.2525 7.2531C11.5322 6.9734 11.8886 6.78292 12.2765 6.70575C12.6645 6.62858 13.0666 6.66818 13.4321 6.81956C13.7975 6.97093 14.1099 7.22728 14.3296 7.55618C14.5494 7.88508 14.6667 8.27175 14.6667 8.66732C14.6667 9.19775 14.456 9.70646 14.0809 10.0815C13.7058 10.4566 13.1971 10.6673 12.6667 10.6673Z" fill="black"/>
</g>
<defs>
<clipPath id="clip0_190_5208">
<rect width="16" height="16" fill="white"/>
</clipPath>
</defs>
</svg>
