<svg width="16" height="16" viewBox="0 0 16 16" fill="none" xmlns="http://www.w3.org/2000/svg">
<g clip-path="url(#clip0_190_5198)">
<path d="M7.52867 11.8047L5.33334 14V0.666667C5.33334 0.298 5.03534 0 4.66667 0C4.298 0 4 0.298 4 0.666667V14L1.80467 11.8047C1.544 11.544 1.12267 11.544 0.862004 11.8047C0.601337 12.0653 0.601337 12.4867 0.862004 12.7473L3.724 15.6093C3.984 15.8693 4.32534 15.9993 4.66667 15.9993C5.008 15.9993 5.34934 15.8693 5.60934 15.6093L8.47134 12.7473C8.732 12.4867 8.732 12.0653 8.47134 11.8047C8.21067 11.544 7.78934 11.544 7.52867 11.8047ZM15.138 4.19533C15.3987 3.93467 15.3987 3.51333 15.138 3.25267L12.276 0.390667C12.016 0.130667 11.6747 0 11.3333 0C10.992 0 10.6507 0.13 10.3907 0.39L7.52867 3.252C7.268 3.51267 7.268 3.934 7.52867 4.19467C7.78934 4.45533 8.21067 4.45533 8.47134 4.19467L10.6667 1.99933V15.3333C10.6667 15.702 10.9647 16 11.3333 16C11.702 16 12 15.702 12 15.3333V2L14.1953 4.19533C14.456 4.456 14.8773 4.456 15.138 4.19533Z" fill="black"/>
</g>
<defs>
<clipPath id="clip0_190_5198">
<rect width="16" height="16" fill="white"/>
</clipPath>
</defs>
</svg>
