<svg width="12" height="12" viewBox="0 0 12 12" fill="none" xmlns="http://www.w3.org/2000/svg">
<path d="M0.906494 6.74905H9.28399L5.62399 10.4091C5.33149 10.7016 5.33149 11.1816 5.62399 11.4741C5.91649 11.7666 6.38899 11.7666 6.68149 11.4741L11.624 6.53155C11.9165 6.23905 11.9165 5.76655 11.624 5.47405L6.68899 0.524052C6.54887 0.383612 6.35863 0.304688 6.16024 0.304688C5.96186 0.304688 5.77162 0.383612 5.63149 0.524052C5.33899 0.816552 5.33899 1.28905 5.63149 1.58155L9.28399 5.24905H0.906494C0.493994 5.24905 0.156494 5.58655 0.156494 5.99905C0.156494 6.41155 0.493994 6.74905 0.906494 6.74905Z" fill="white"/>
</svg>
