<svg width="6" height="10" viewBox="0 0 6 10" fill="none" xmlns="http://www.w3.org/2000/svg">
<path d="M5.52704 9.47256C5.58953 9.41058 5.63913 9.33685 5.67297 9.25561C5.70682 9.17437 5.72424 9.08723 5.72424 8.99923C5.72424 8.91122 5.70682 8.82408 5.67297 8.74284C5.63913 8.6616 5.58953 8.58787 5.52704 8.52589L2.47371 5.47256C2.41123 5.41058 2.36163 5.33685 2.32778 5.25561C2.29394 5.17437 2.27651 5.08723 2.27651 4.99923C2.27651 4.91122 2.29394 4.82408 2.32778 4.74284C2.36163 4.6616 2.41123 4.58787 2.47371 4.52589L5.52704 1.47256C5.58953 1.41058 5.63913 1.33685 5.67297 1.25561C5.70682 1.17437 5.72424 1.08723 5.72424 0.999226C5.72424 0.911218 5.70682 0.824081 5.67297 0.742842C5.63913 0.661602 5.58953 0.587868 5.52704 0.525893C5.40214 0.401726 5.23317 0.332031 5.05704 0.332031C4.88092 0.332031 4.71195 0.401726 4.58704 0.525893L1.52704 3.58589C1.15251 3.96089 0.942137 4.46922 0.942137 4.99923C0.942137 5.52923 1.15251 6.03756 1.52704 6.41256L4.58704 9.47256C4.71195 9.59673 4.88092 9.66642 5.05704 9.66642C5.23317 9.66642 5.40214 9.59673 5.52704 9.47256Z" fill="black"/>
</svg>
